<svg width="20" height="17" viewBox="0 0 20 17" fill="none" xmlns="http://www.w3.org/2000/svg">
<path d="M6.5 16C7.32843 16 8 15.3284 8 14.5C8 13.6716 7.32843 13 6.5 13C5.67157 13 5 13.6716 5 14.5C5 15.3284 5.67157 16 6.5 16Z" stroke="white" stroke-width="1.8" stroke-linecap="round" stroke-linejoin="round"/>
<path d="M17.5 16C18.3284 16 19 15.3284 19 14.5C19 13.6716 18.3284 13 17.5 13C16.6716 13 16 13.6716 16 14.5C16 15.3284 16.6716 16 17.5 16Z" stroke="white" stroke-width="1.8" stroke-linecap="round" stroke-linejoin="round"/>
<path d="M4.82091 4.33325H19L17.6255 9.92645C17.5506 10.2334 17.3457 10.5091 17.0466 10.7053C16.7474 10.9015 16.3731 11.0058 15.9891 10.9998H7.34091C6.94138 11.0025 6.55441 10.8861 6.25298 10.6724C5.95154 10.4587 5.75647 10.1626 5.70455 9.83978L4.46091 2.15997C4.40934 1.83947 4.21662 1.54515 3.91862 1.33177C3.62062 1.11839 3.23763 1.00049 2.84091 1H1" stroke="white" stroke-width="1.8" stroke-linecap="round" stroke-linejoin="round"/>
</svg>
